<svg width="20" height="20" viewBox="0 0 20 20" fill="none" xmlns="http://www.w3.org/2000/svg">
<g clip-path="url(#clip0_153_4837)">
<path fill-rule="evenodd" clip-rule="evenodd" d="M7.24076 14.795C6.98667 14.6898 6.82099 14.4418 6.82099 14.1668L6.82099 9.16682C6.82099 8.79122 7.12544 8.48682 7.50099 8.48682C7.87654 8.48682 8.18099 8.79122 8.18099 9.16682L8.18099 12.5251L8.68682 12.0193C8.95238 11.7537 9.38293 11.7537 9.64849 12.0193C9.91405 12.2848 9.91405 12.7154 9.64849 12.9809L7.98182 14.6476C7.78734 14.8421 7.49486 14.9003 7.24076 14.795Z" fill="#30CFB0"/>
<path fill-rule="evenodd" clip-rule="evenodd" d="M7.98052 14.6476C7.71496 14.9132 7.28441 14.9132 7.01885 14.6476L5.35219 12.9809C5.08663 12.7154 5.08663 12.2848 5.35219 12.0193C5.61774 11.7537 6.0483 11.7537 6.31385 12.0193L7.98052 13.686C8.24608 13.9515 8.24608 14.3821 7.98052 14.6476Z" fill="#30CFB0"/>
<path fill-rule="evenodd" clip-rule="evenodd" d="M3.49937 3.50182C2.75179 4.2494 2.34438 5.48388 2.34438 7.50015V12.5001C2.34438 14.5164 2.75179 15.7509 3.49937 16.4985C4.24696 17.2461 5.48144 17.6535 7.49771 17.6535H12.4977C14.514 17.6535 15.7485 17.2461 16.496 16.4985C17.2436 15.7509 17.651 14.5164 17.651 12.5001V8.33348C17.651 7.95793 17.9555 7.65348 18.331 7.65348C18.7066 7.65348 19.011 7.95793 19.011 8.33348V12.5001C19.011 14.6506 18.5851 16.3327 17.4577 17.4601C16.3303 18.5876 14.6481 19.0135 12.4977 19.0135H7.49771C5.34731 19.0135 3.66513 18.5876 2.53771 17.4601C1.41029 16.3327 0.984375 14.6506 0.984375 12.5001V7.50015C0.984375 5.34975 1.41029 3.66757 2.53771 2.54015C3.66513 1.41273 5.34731 0.986816 7.49771 0.986816H11.6644C12.0399 0.986816 12.3444 1.29126 12.3444 1.66682C12.3444 2.04237 12.0399 2.34682 11.6644 2.34682H7.49771C5.48144 2.34682 4.24696 2.75423 3.49937 3.50182Z" fill="#30CFB0"/>
<path fill-rule="evenodd" clip-rule="evenodd" d="M11.4042 1.0386C11.6582 0.933347 11.9507 0.991525 12.1452 1.186L18.8119 7.85267C19.0064 8.04715 19.0645 8.33963 18.9593 8.59373C18.854 8.84783 18.6061 9.0135 18.331 9.0135H14.9977C13.71 9.0135 12.6352 8.80766 11.9127 8.08517C11.1902 7.36267 10.9844 6.28784 10.9844 5.00017V1.66684C10.9844 1.3918 11.1501 1.14385 11.4042 1.0386ZM12.3444 3.3085V5.00017C12.3444 6.2125 12.5552 6.80433 12.8744 7.1235C13.1935 7.44268 13.7854 7.6535 14.9977 7.6535H16.6894L12.3444 3.3085Z" fill="#30CFB0"/>
</g>
<defs>
<clipPath id="clip0_153_4837">
<rect width="20" height="20" fill="white"/>
</clipPath>
</defs>
</svg>
