<svg width="748" height="198" viewBox="0 0 748 198" fill="none" xmlns="http://www.w3.org/2000/svg">
<path d="M747.58 197.98H438.27C383.73 197.98 339.36 153.61 339.36 99.0702C339.36 55.5602 303.96 20.1602 260.45 20.1602H-6V0.160156H260.45C314.99 0.160156 359.36 44.5302 359.36 99.0702C359.36 142.58 394.76 177.98 438.27 177.98H747.58V197.98Z" fill="url(#paint0_linear_485_189)"/>
<path d="M234.26 19.6602C239.507 19.6602 243.76 15.4069 243.76 10.1602C243.76 4.91345 239.507 0.660156 234.26 0.660156C229.013 0.660156 224.76 4.91345 224.76 10.1602C224.76 15.4069 229.013 19.6602 234.26 19.6602Z" fill="white"/>
<path d="M492.45 197.48C497.697 197.48 501.95 193.227 501.95 187.98C501.95 182.733 497.697 178.48 492.45 178.48C487.203 178.48 482.95 182.733 482.95 187.98C482.95 193.227 487.203 197.48 492.45 197.48Z" fill="white"/>
<defs>
<linearGradient id="paint0_linear_485_189" x1="-6" y1="99.0702" x2="747.58" y2="99.0702" gradientUnits="userSpaceOnUse">
<stop stop-color="white"/>
<stop offset="0.13" stop-color="#ECFAF7"/>
<stop offset="0.39" stop-color="#BAEFE4"/>
<stop offset="0.74" stop-color="#6CDCC7"/>
<stop offset="1" stop-color="#30CFB0"/>
</linearGradient>
</defs>
</svg>
